<mxfile host="app.diagrams.net" agent="Mozilla/5.0 (Windows NT 10.0; Win64; x64) AppleWebKit/537.36 (KHTML, like Gecko) Chrome/133.0.0.0 Safari/537.36" version="26.0.16">
  <diagram name="Page-1" id="h6vgOwvyaBZk0I0jMLyV">
    <mxGraphModel dx="819" dy="449" grid="1" gridSize="10" guides="1" tooltips="1" connect="1" arrows="1" fold="1" page="1" pageScale="1" pageWidth="850" pageHeight="1100" math="0" shadow="0">
      <root>
        <mxCell id="0" />
        <mxCell id="1" parent="0" />
        <mxCell id="4vWpUYzkQfUT01llrJPC-1" value="Empleado" style="swimlane;fontStyle=1;align=center;verticalAlign=top;childLayout=stackLayout;horizontal=1;startSize=26;horizontalStack=0;resizeParent=1;resizeParentMax=0;resizeLast=0;collapsible=1;marginBottom=0;whiteSpace=wrap;html=1;" vertex="1" parent="1">
          <mxGeometry x="360" y="300" width="350" height="270" as="geometry" />
        </mxCell>
        <mxCell id="4vWpUYzkQfUT01llrJPC-2" value="- idEmpleado: String&lt;div&gt;- salarioEmpleado:double&lt;/div&gt;&lt;div&gt;- maxHorasSemana:int&lt;/div&gt;&lt;div&gt;- seguroSocial: boolean&lt;/div&gt;&lt;div&gt;- seguroEmpresa: boolean&lt;/div&gt;&lt;div&gt;&lt;br&gt;&lt;/div&gt;" style="text;strokeColor=none;fillColor=none;align=left;verticalAlign=top;spacingLeft=4;spacingRight=4;overflow=hidden;rotatable=0;points=[[0,0.5],[1,0.5]];portConstraint=eastwest;whiteSpace=wrap;html=1;" vertex="1" parent="4vWpUYzkQfUT01llrJPC-1">
          <mxGeometry y="26" width="350" height="104" as="geometry" />
        </mxCell>
        <mxCell id="4vWpUYzkQfUT01llrJPC-3" value="" style="line;strokeWidth=1;fillColor=none;align=left;verticalAlign=middle;spacingTop=-1;spacingLeft=3;spacingRight=3;rotatable=0;labelPosition=right;points=[];portConstraint=eastwest;strokeColor=inherit;" vertex="1" parent="4vWpUYzkQfUT01llrJPC-1">
          <mxGeometry y="130" width="350" height="8" as="geometry" />
        </mxCell>
        <mxCell id="4vWpUYzkQfUT01llrJPC-4" value="+ empleado(idEmpleado,salarioEmpleado,maxHorasSemana): void&lt;div&gt;+ ingresarDatos():void&lt;/div&gt;&lt;div&gt;+ alta_seguro_social():void&lt;br&gt;+ baja_seguro_social():void&lt;br&gt;+ alta_seguro_empresa():void&lt;br&gt;+ baja_seguro_empresa(): void&lt;/div&gt;" style="text;strokeColor=none;fillColor=none;align=left;verticalAlign=top;spacingLeft=4;spacingRight=4;overflow=hidden;rotatable=0;points=[[0,0.5],[1,0.5]];portConstraint=eastwest;whiteSpace=wrap;html=1;" vertex="1" parent="4vWpUYzkQfUT01llrJPC-1">
          <mxGeometry y="138" width="350" height="132" as="geometry" />
        </mxCell>
      </root>
    </mxGraphModel>
  </diagram>
</mxfile>
